<?xml version="1.0" encoding="UTF-8" standalone="no"?>
<!-- Created with Inkscape (http://www.inkscape.org/) -->

<svg
   width="720"
   height="1280"
   viewBox="0 0 190.5 338.66666"
   version="1.1"
   id="svg5"
   inkscape:version="1.2.1 (9c6d41e410, 2022-07-14)"
   sodipodi:docname="Chalkboard.svg"
   inkscape:export-filename="Chalkboard.png"
   inkscape:export-xdpi="96"
   inkscape:export-ydpi="96"
   xmlns:inkscape="http://www.inkscape.org/namespaces/inkscape"
   xmlns:sodipodi="http://sodipodi.sourceforge.net/DTD/sodipodi-0.dtd"
   xmlns="http://www.w3.org/2000/svg"
   xmlns:svg="http://www.w3.org/2000/svg">
  <sodipodi:namedview
     id="namedview7"
     pagecolor="#252525"
     bordercolor="#000000"
     borderopacity="0.25"
     inkscape:showpageshadow="2"
     inkscape:pageopacity="1"
     inkscape:pagecheckerboard="0"
     inkscape:deskcolor="#d1d1d1"
     inkscape:document-units="mm"
     showgrid="false"
     inkscape:zoom="0.74564394"
     inkscape:cx="235.36703"
     inkscape:cy="804.67361"
     inkscape:window-width="1920"
     inkscape:window-height="1017"
     inkscape:window-x="-8"
     inkscape:window-y="-8"
     inkscape:window-maximized="1"
     inkscape:current-layer="layer1" />
  <defs
     id="defs2">
    <filter
       style="color-interpolation-filters:sRGB"
       id="filter1782"
       inkscape:label="filter0"
       x="0"
       y="0"
       width="1"
       height="1">
      <feTurbulence
         id="feTurbulence7712"
         numOctaves="10"
         baseFrequency="100"
         result="result1"
         seed="0" />
      <feComposite
         in2="result1"
         id="feComposite7714"
         in="SourceGraphic"
         operator="out"
         result="result2" />
      <feDisplacementMap
         in2="result1"
         id="feDisplacementMap7718"
         scale="39.583333"
         xChannelSelector="A"
         yChannelSelector="A" />
    </filter>
  </defs>
  <g
     inkscape:label="Layer 1"
     inkscape:groupmode="layer"
     id="layer1">
    <path
       style="fill:#b4b4b4;fill-opacity:0.0704225;stroke-width:0.264583;filter:url(#filter1782)"
       id="path6609"
       d="m -5.8122822,37.168633 c 0.8970187,3.745545 0.7558728,7.712569 2.1492906,11.347103 0.379518,0.98992 0.8126978,1.555456 1.379959,2.415254 1.1937339,1.134071 1.72082083,2.703492 2.24342259,4.222123 0.16279152,0.473059 0.25753782,0.968661 0.43473968,1.43651 0.1422005,0.375439 1.10198413,2.455731 1.33282653,2.959301 1.5367568,3.21674 2.9022926,6.50918 4.2710816,9.79963 0.5855777,1.6235 1.3232222,3.18569 2.0686413,4.74015 0.084691,0.17661 0.1936962,0.34205 0.2647686,0.52456 1.0869842,2.79141 -0.1229045,0.22258 1.3390334,3.11487 0.9703489,1.91524 1.4846739,4.02065 2.3657379,5.97214 0.580042,1.28474 1.226155,2.53863 1.83485,3.81005 0.385736,0.83104 0.761401,1.66683 1.157209,2.49312 1.241098,2.59092 2.526498,5.14334 3.585715,7.81805 0.797856,2.01472 0.832766,2.266136 1.43053,4.239136 0.748877,2.63868 2.224822,4.97122 3.361609,7.44225 0.362835,0.78869 0.661275,1.60545 0.99482,2.40697 1.317754,3.1666 0.514601,1.16559 1.599452,3.91647 1.831778,3.13474 3.809099,6.18047 5.309797,9.4992 0.523309,1.15728 2.25193,6.05204 2.747971,7.2624 0.665599,1.62409 1.404855,3.217 2.107284,4.8255 1.330841,5.00463 0.734163,2.43294 1.584712,6.64371 0.193275,0.95683 0.429895,2.31578 0.78655,3.26153 0.345898,0.91721 1.127705,2.15195 1.589307,2.94222 0.826844,1.73706 1.468411,3.53099 1.693413,5.44679 0.07445,0.63389 0.0598,1.27786 0.161965,1.90787 0.33669,2.07632 1.079322,4.95331 1.568854,6.97049 0.536546,1.71355 1.202817,3.63043 1.569728,5.42382 0.02622,0.1281 0.204021,1.79243 0.244343,2.08239 0.170246,1.2242 0.192712,1.21426 0.460822,2.48595 0.205314,0.5767 0.410628,1.15339 0.615945,1.73009 0.292166,0.69188 0.618937,1.37015 0.876501,2.07565 0.271799,0.7445 0.491781,1.50728 0.709742,2.26928 0.231992,0.81105 0.344046,1.65848 0.639741,2.44852 2.803102,6.52507 1.514351,3.30167 3.887457,9.66168 1.046314,2.85361 2.276092,5.63274 3.454691,8.43235 0.291849,0.69325 1.314633,3.12305 1.578404,3.89695 0.175903,0.51609 0.29414,1.05008 0.441211,1.57512 0.714589,1.74468 0.985925,3.60919 1.648341,5.36554 0.773962,2.05209 1.015505,2.5176 1.892191,4.48046 0.198988,0.51763 0.81007,2.13033 1.015553,2.5569 0.06846,0.14212 0.221859,0.23303 0.285687,0.37729 0.09991,0.22582 0.129561,0.47658 0.197199,0.71406 0.153898,0.54037 0.291092,1.086 0.467397,1.61948 0.198194,0.5997 0.436914,1.18525 0.655373,1.77789 1.298726,2.661 2.138145,5.49918 2.84762,8.36412 0.08405,0.39412 0.110639,0.80504 0.252135,1.18239 0.286925,0.76515 0.697492,1.47826 1.026149,2.22644 1.126009,2.56331 2.171825,5.15697 3.252444,7.7393 0.610338,2.06346 1.796611,3.85096 2.919066,5.6582 0.587266,0.94551 1.265687,1.84036 1.760593,2.83734 0.329075,0.66294 1.750274,4.87296 1.995236,5.58604 0.253487,0.79007 0.537147,1.5711 0.760455,2.37022 0.161962,0.57957 0.223089,1.18485 0.39421,1.7618 0.81737,2.75582 2.12802,5.32749 3.111622,8.02077 0.608888,1.57176 1.12267,3.16963 1.6715,4.76311 0.188037,0.54596 0.32321,1.11088 0.541216,1.64557 0.508346,1.24682 1.490064,3.159 2.108239,4.39545 0.580824,1.07666 1.18018,2.14114 1.676668,3.26027 0.204308,0.46053 0.445619,1.67661 0.485354,1.84243 0.154826,0.31871 0.273553,0.65767 0.464479,0.9562 0.150556,0.2354 0.263559,-0.014 0.427426,0.17957 0.135313,0.15973 0.214794,0.35965 0.311835,0.54515 0.343488,0.65659 0.63821,1.33932 1.009484,1.98062 0.27541,0.47569 0.617892,0.90927 0.926835,1.36393 0.16429,0.24508 1.405165,2.07256 1.670413,2.53902 0.135485,0.23828 0.234762,0.99229 0.350533,0.74385 0.176091,-0.37791 -0.18714,-0.83429 -0.116893,-1.24524 0.02791,-0.16327 0.194675,0.27183 0.257056,0.42529 0.156554,0.38513 0.26434,0.78833 0.39651,1.18248 0.156099,0.27263 0.242017,0.59997 0.468294,0.81788 0.06353,0.0612 0.115707,-0.22331 0.193063,-0.18092 0.365049,0.19992 1.301272,1.88669 1.552226,2.15831 0.210122,0.22741 0.507251,0.3552 0.760876,0.53282 0.35897,0.25752 1.307057,0.95067 1.748623,1.22653 0.19789,0.12361 0.431824,0.19208 0.61101,0.34155 0.23503,0.196 0.41068,0.45384 0.61543,0.68133 0.89212,0.9911 0.49567,0.48826 1.2435,1.58625 0.73883,0.22175 8.1979,55.77958 8.85079,56.16019 16.79487,-0.22508 25.80057,-55.59073 42.57816,-56.38495 0.64999,-0.0308 0.54091,-1.18568 0.86362,-1.75072 0.2248,-0.39362 0.51637,-0.74512 0.77455,-1.11768 l -49.96847,-3.68665 v 0 c -0.24193,0.17907 -0.42912,0.48643 -0.7258,0.53718 -0.28691,0.0491 -1.1212,-0.26744 -0.83014,-0.27096 16.4285,-0.19894 32.85847,-0.26707 49.28811,-0.31583 0.16043,0 -0.29042,0.15369 -0.44993,0.17092 -0.1788,0.0193 -0.35711,-0.0429 -0.53566,-0.0644 -0.15498,0.19669 -0.24751,0.46588 -0.46495,0.59008 -0.33222,0.18975 -0.99153,-0.0554 -1.22857,-0.2652 -0.27401,-0.24246 -0.42773,-0.59745 -0.68482,-0.8578 -0.44892,-0.45461 -1.21385,-0.93075 -1.7343,-1.28154 -2.24782,-1.72503 0.45375,0.0595 -1.25197,-0.41862 -0.18542,-0.052 -0.71437,-0.73353 -0.78846,-0.87842 -0.13712,-0.26815 -0.11436,-0.62481 -0.3198,-0.84502 -0.0914,-0.098 -0.26268,0.0532 -0.39402,0.0799 -0.10079,0.10826 -0.16818,0.38711 -0.30237,0.32485 -0.1628,-0.0755 -0.0967,-0.34642 -0.12575,-0.52353 -0.0778,-0.47395 0.0237,-0.99978 -0.19443,-1.42766 -0.0729,-0.14296 -0.30413,0.19229 -0.45829,0.14766 -0.30686,-0.0889 -0.56861,-0.30364 -0.80858,-0.51451 -0.36784,-0.32327 -0.66716,-0.71702 -1.00073,-1.0755 -0.29735,-0.48496 -0.54077,-1.0074 -0.89204,-1.45482 -0.19369,-0.24672 -0.5712,-0.32781 -0.72297,-0.60232 -0.29742,-0.53795 -0.23481,-2.15188 -0.77604,-2.70991 -0.0969,-0.0999 -0.27477,-0.0446 -0.41216,-0.0669 -0.11576,0.0863 -0.2813,0.38735 -0.34728,0.25892 -0.20329,-0.39576 -0.0987,-0.8863 -0.19778,-1.32006 -0.24511,-1.0732 -0.32995,-0.94482 -0.73173,-1.84777 -0.78661,-1.76784 -0.0875,-0.64476 -1.32337,-2.2852 -0.366,-0.46202 -0.79793,-0.87874 -1.098,-1.38605 -0.35899,-0.60693 -0.59435,-1.27939 -0.86394,-1.93095 -0.86384,-2.08783 -1.21779,-4.34237 -2.25125,-6.35921 -0.21167,-0.66135 -0.37723,-1.33927 -0.635,-1.98403 -0.51324,-1.28376 -1.24294,-2.47182 -1.78941,-3.74179 -1.11392,-2.58866 -0.44011,-1.23185 -1.32578,-4.03598 -0.26702,-0.84543 -0.58753,-1.67299 -0.88129,-2.5095 -0.35708,-0.90387 -0.73885,-1.79837 -1.07123,-2.71161 -0.71095,-1.95341 -1.61085,-5.09182 -2.5565,-6.93377 -0.31459,-0.61278 -0.87951,-1.06426 -1.25443,-1.64211 -0.55771,-0.85955 -1.0684,-2.11027 -1.48342,-3.05028 -0.52512,-1.21055 -1.00627,-2.43999 -1.54029,-3.64662 -1.17319,-2.65083 -0.74335,-1.33157 -1.78924,-4.035 -0.23423,-0.60545 -0.41537,-1.23063 -0.65146,-1.83536 -0.12072,-0.30925 -0.27864,-0.60264 -0.41795,-0.90398 -0.47819,-1.73889 -1.02553,-3.46585 -1.46012,-5.21605 -0.14708,-0.59234 -0.22167,-1.20247 -0.39277,-1.78831 -0.24507,-0.83913 -0.74894,-1.58831 -0.96776,-2.43747 -0.21266,-0.25312 -0.49567,-0.46096 -0.63798,-0.75936 -0.61995,-1.29984 -0.27257,-2.90312 -0.897,-4.20091 -0.11859,-0.24648 -0.49594,-0.28015 -0.64143,-0.51178 -0.30389,-0.48381 -0.44718,-1.05153 -0.67077,-1.57729 -0.32533,-0.54113 -0.70194,-1.05457 -0.97598,-1.6234 -0.89133,-1.85016 -0.54324,-1.56285 -1.00855,-3.33626 -0.0864,-0.32936 -0.23134,-0.64082 -0.33048,-0.96658 -0.68622,-2.25492 -0.0991,-0.95028 -1.11717,-2.84067 -0.17534,-0.70165 -0.31186,-1.41416 -0.52601,-2.10496 -0.52506,-1.69366 -0.97773,-2.5171 -1.70474,-4.12888 -0.35536,-0.78785 -0.66733,-1.59619 -1.0572,-2.36755 -0.99622,-1.97102 -2.28063,-3.78846 -3.19668,-5.80325 -0.5948,-1.52287 -1.26072,-3.01983 -1.784395,-4.5686 -0.465394,-1.37641 -1.495004,-5.21698 -1.94801,-7.06777 -0.548699,-2.24176 -0.565584,-2.75627 -1.266553,-4.84262 -0.131064,-0.3901 -0.312949,-0.76123 -0.469424,-1.14185 -0.08959,-0.29529 -0.202075,-0.58459 -0.268779,-0.88588 -0.143217,-0.64687 -0.220578,-1.77278 -0.372055,-2.38854 -0.124814,-0.50739 -0.321183,-0.99445 -0.483044,-1.49126 -1.089176,-3.34309 -0.486746,-1.7105 -1.939216,-5.13976 -0.246028,-1.10276 -0.541295,-2.19567 -0.738082,-3.30826 -0.662956,-3.74825 -0.129921,-1.7993 -0.464849,-5.19405 -0.237574,-2.40798 -0.334277,-2.24442 -1.028205,-4.52947 -0.243642,-0.80229 -0.479787,-1.60684 -0.71968,-2.41027 -0.250777,-0.63322 -0.464627,-1.28235 -0.752335,-1.89967 -1.65845,-3.55846 0.449935,1.37192 -1.172612,-1.71003 -0.287605,-0.54629 -0.484071,-1.13621 -0.704993,-1.7127 -1.211431,-3.16121 -1.210487,-3.40508 -2.35889,-7.09275 -2.496119,-7.25377 -0.713097,-2.34874 -3.104107,-8.39757 -0.532919,-1.34818 -1.015683,-2.7163 -1.570921,-4.05545 -0.584288,-1.40921 -1.248283,-2.78422 -1.846758,-4.18746 -0.503256,-1.17999 -0.916686,-2.39858 -1.458142,-3.56154 -0.305507,-0.65617 -0.718495,-1.25672 -1.077741,-1.88508 -1.443442,-2.29499 -0.488336,-0.6247 -1.885299,-3.67334 -0.373904,-0.81598 -0.7943,-1.61057 -1.153583,-2.43309 -0.42482,-0.97256 -0.757402,-1.98438 -1.197774,-2.94999 -0.315976,-0.69286 -0.751975,-1.32663 -1.068459,-2.01925 -0.291333,-0.63758 -0.501102,-1.30937 -0.751652,-1.96405 -0.556898,-1.562276 -1.049253,-3.149036 -1.66959,-4.687226 -0.352025,-0.87289 -0.790956,-1.70846 -1.160685,-2.574 -0.407696,-0.95442 -0.756065,-1.93366 -1.171175,-2.88487 -0.219713,-0.50347 -1.912353,-4.0353 -2.216253,-4.67117 -2.042356,-6.29255 0.330483,0.44712 -1.528149,-3.6676 -0.205936,-0.45591 -0.281974,-0.96184 -0.471561,-1.42478 -0.175094,-0.42756 -0.42645,-0.82015 -0.619657,-1.23983 -0.414769,-0.90095 -1.107789,-2.62345 -1.467125,-3.50048 l -0.598363,-1.89979 c -0.164603,-0.22164 -0.401299,-0.40481 -0.493803,-0.66492 -0.202247,-0.56872 -0.151929,-1.21029 -0.372832,-1.77202 -0.151646,-0.38562 -0.510207,-0.65579 -0.721977,-1.01195 -0.581715,-0.97836 -0.954085,-2.07308 -1.622687,-3.00451 -0.276116,-0.72793 -0.54126,-1.46011 -0.828349,-2.18378 -0.248328,-0.62596 -0.557268,-1.22826 -0.777693,-1.86459 -0.239794,-0.69225 -0.331792,-1.43264 -0.600556,-2.11417 -0.159308,-0.40397 -0.500764,-0.71681 -0.67305,-1.11542 -2.64591,-6.121804 1.44522,2.35385 -1.121447,-2.860605 -0.638162,-1.296292 -1.422207,-2.561053 -1.958242,-3.904091 -1.153872,-2.891026 -0.287501,-1.155044 -1.330545,-4.270505 -0.190455,-0.56887 -0.456064,-1.109752 -0.684096,-1.664629 C 47.226129,47.049124 45.647308,45.722238 45.3831,45.260561 43.968352,42.78843 44.344214,39.88793 44.134862,37.168733 H -5.8122822 Z"
       sodipodi:nodetypes="cscssccsccscsscsscsscsscsscssccssccsscscssssccsscsscsscsscscscsscsssscscscsssccssccssccscssscssscssssscssscssscsscssscssscssscsscssscssscssscssscssscssscssscsssscsssscssscsssccssscsssccsscsccc" />
    <path
       style="fill:#b4b4b4;fill-opacity:0.0704225;stroke-width:0.264583;filter:url(#filter1782)"
       id="path6613"
       d="m 80.408856,38.348192 c -2.332591,3.475723 -2.589922,3.552404 -4.379407,7.625432 -0.718125,1.634511 -1.286476,3.330821 -1.937147,4.993336 -1.427075,3.646286 -2.882038,7.258642 -4.504854,10.821217 -0.179226,0.375293 -0.31359,0.77552 -0.537681,1.125876 -0.225444,0.352467 -0.579917,0.611235 -0.800719,0.966629 -0.475028,0.764587 -0.834089,1.595781 -1.27784,2.378937 -0.831088,1.466755 -2.120471,3.439367 -2.852415,4.971664 -0.38141,0.798471 -0.661117,1.641671 -0.991674,2.462501 -0.220334,0.77941 -0.511408,1.5422 -0.661003,2.33821 -0.529172,2.81577 -0.493461,6.45013 -0.647756,9.12961 -0.352927,6.12891 -0.778364,9.85193 -0.91744,16.047676 -0.06512,2.90131 0.0093,5.80407 0.01387,8.70611 0.110355,5.22757 0.260048,11.41001 0.29832,16.6623 0.0176,2.41552 -0.03586,4.83137 -0.0047,7.24676 0.02676,2.07106 0.137319,4.14031 0.178512,6.21114 0.186029,9.35141 -0.181536,-0.60834 0.238043,9.25391 -0.06343,1.61674 0.02093,3.24609 -0.190302,4.85024 -0.465084,3.53196 -1.608767,6.39371 -3.718409,9.3418 -3.890957,5.43737 -5.533451,5.43846 -10.774309,9.87916 -2.273663,1.92653 -4.39878,4.02181 -6.598169,6.03272 -1.813983,2.41236 -3.955597,4.61016 -5.441952,7.2371 -3.205742,5.66573 -4.259771,10.9731 -5.197121,17.30472 -0.388802,2.62628 -0.691962,5.27421 -0.761939,7.9282 -0.07692,2.91741 0.218827,5.83275 0.322202,8.74934 0.08181,2.3082 0.155578,4.61668 0.233365,6.92502 0.145494,4.10233 -0.738492,8.06718 -1.531686,12.05483 -0.507945,2.55363 -1.033732,4.66741 -1.234062,7.25834 -0.08338,1.07836 -0.03345,2.16289 -0.05017,3.24435 0.09898,2.14244 0.188478,2.87361 0.09565,4.90998 -0.02763,0.60603 -0.113766,1.20822 -0.149762,1.81382 -0.139626,2.34911 0.0418,1.88601 -0.369142,4.38341 -0.169388,1.02944 -0.402973,2.04726 -0.604459,3.07088 -0.783699,2.39134 -1.819087,5.7956 -2.907846,8.02191 -0.56927,1.16403 -1.349785,2.21234 -2.030054,3.3152 -0.87541,1.41925 -1.755445,2.83564 -2.636963,4.25109 -3.66882,5.89102 -1.895719,2.76124 -4.94376,8.58483 -0.784375,2.2983 -1.549163,3.83476 -1.61478,6.22445 -0.02116,0.77071 0.159581,1.53384 0.257067,2.29865 0.01136,0.0891 0.2864,1.4334 0.189852,1.74696 -0.02123,0.069 -0.07685,-0.12216 -0.115272,-0.18322 -0.02767,-0.29779 -0.05534,-0.59558 -0.08301,-0.89339 l 50.344852,2.67858 v 0 c 0.02799,-0.39245 4.314055,60.24733 4.342045,59.85487 -0.03171,-1.08794 -4.385904,-63.21595 -4.742282,-64.25653 -0.09939,-0.29019 -0.353486,-0.52205 -0.410911,-0.82338 -0.313656,-1.64576 0.295455,-2.65435 0.786593,-4.31184 2.401456,-4.72188 1.527268,-3.2808 4.658746,-8.14191 0.995389,-1.54517 2.121419,-3.00845 3.039258,-4.60092 0.715637,-1.24164 1.273197,-2.56908 1.849515,-3.8812 1.513625,-3.44612 2.122998,-5.30691 3.391815,-8.81309 0.5393,-2.23176 1.049285,-4.03362 1.332225,-6.29515 0.08333,-0.66606 0.08204,-1.34019 0.102282,-2.01115 0.06992,-2.31777 0.05648,-4.65164 -0.281672,-6.95036 -0.05575,-2.52585 -0.167558,-3.14505 0.211214,-5.74633 0.08424,-0.57851 1.4762,-7.54256 1.523399,-7.94348 0.401233,-3.40829 0.05447,-5.72566 -0.182266,-9.22007 -0.260959,-2.22378 -0.657116,-4.43583 -0.782878,-6.67133 -0.223528,-3.9733 -0.111938,-11.55147 0.457406,-15.62764 0.3648,-2.61172 0.767334,-5.24555 1.599774,-7.7478 2.390021,-7.18419 3.95315,-7.97609 8.712531,-13.72595 2.250355,-1.93967 4.494839,-3.88617 6.751066,-5.819 2.24196,-1.92062 4.676547,-3.63343 6.743424,-5.74131 3.21497,-3.27873 6.48819,-8.06509 8.0994,-12.41716 1.09697,-2.96303 1.03647,-7.19028 1.16881,-10.26274 -0.0153,-1.67522 0.0658,-3.3541 -0.0461,-5.02565 -0.23275,-3.47707 -1.2854,-6.87378 -1.14083,-10.39214 -0.14515,-2.42829 -0.1525,-4.86288 -0.23821,-7.294 -0.44846,-12.71972 -0.19983,-3.3261 -0.48517,-16.50992 0.0381,-2.82043 0.003,-5.64281 0.11436,-8.4613 0.10631,-2.688706 0.2518,-5.378966 0.53865,-8.054456 0.54773,-5.10866 1.27301,-8.46935 2.34722,-13.32631 0.19476,-0.88056 0.39781,-1.75984 0.6345,-2.63006 0.165,-0.60664 0.37989,-1.19859 0.56984,-1.79788 0.28487,-0.64103 0.53672,-1.29777 0.8546,-1.92309 0.65232,-1.28321 2.07047,-3.618943 2.825,-4.786395 1.17583,-1.819302 1.87706,-2.477305 2.64523,-4.438709 0.1406,-0.358994 0.14424,-0.75748 0.21636,-1.136221 0.1357,-0.666731 0.23004,-1.343242 0.40711,-2.0002 0.91008,-3.376411 1.59984,-5.050652 3.11626,-8.42455 1.15909,-2.578872 2.51783,-5.577006 4.43649,-7.746656 0.79472,-0.898683 1.82055,-1.562835 2.73082,-2.344253 L 80.408776,38.348192 Z"
       inkscape:label="path6613"
       sodipodi:nodetypes="csscsssscssscscscssscsssscsscssscssscssscccscsscssscsscsscssscssscscsccssscsssccssccc" />
    <path
       style="fill:#b4b4b4;fill-opacity:0.0704225;stroke-width:0.264583;filter:url(#filter1782)"
       id="path6615"
       d="m 20.387687,30.647742 c 1.014118,15.720954 -0.430172,-8.527714 0.321521,13.957665 0.179164,5.35935 0.730799,10.703597 0.848186,16.064656 0.249359,11.388251 -0.428825,22.710131 -1.323395,34.049171 -0.07576,1.71398 -0.06504,3.43397 -0.227267,5.14193 -0.374059,3.938076 -1.406808,8.504836 -2.112843,12.311396 -0.88785,4.78681 -1.973059,10.73256 -2.599019,15.58286 -0.260085,2.0153 -0.399158,4.04436 -0.598738,6.06654 -0.0706,1.15886 -0.169605,2.31633 -0.211807,3.47657 -0.03336,0.91702 0.03791,1.83673 -0.01478,2.75285 -0.160458,2.79023 -0.675389,6.595 -1.178896,9.23535 -0.830446,4.35479 -1.82006,7.70804 -2.974742,12.01527 -0.7434687,2.22569 -1.5208834,4.44032 -2.2304056,6.67705 -1.9229853,6.06213 -2.4536503,7.85794 -3.7124526,14.04461 -1.0798109,5.30698 -0.8955696,5.33162 -1.6210587,10.22976 -0.1843398,1.24457 -0.402178,2.48395 -0.603267,3.72592 -0.2295315,1.23903 -1.41190338,7.52335 -1.48271755,8.37507 -0.28407209,3.41666 -0.23340192,6.85381 -0.44585852,10.27567 -0.21407389,3.44791 -0.5510762,6.88709 -0.83351216,10.33007 -0.86107087,10.49672 -0.40125157,4.25175 -0.94462197,11.95375 0.2436567,1.78829 0.2050175,2.89092 1.00348041,4.45924 2.10894799,4.14229 -0.76667371,-3.22848 1.62649199,2.78497 0.943323,2.82141 0.4347777,1.4395 1.5208974,4.14748 0.3718208,0.69898 0.7436413,1.39798 1.1154621,2.09696 l 49.7184832,-6.21941 v 0 c -0.330213,0.46138 9.275057,71.89053 8.944847,72.35191 -0.316939,-0.28763 -10.680858,-71.45518 -10.886296,-71.83065 -0.521565,-0.95327 -1.071134,-3.82069 -1.361572,-4.74983 -0.192133,-0.61462 -0.321175,-1.2863 -0.717876,-1.79358 -0.179382,-0.22937 -0.623633,-0.0236 -0.848206,-0.209 -0.426628,-0.35213 -0.670007,-0.8804 -1.00501,-1.32061 -0.261127,-1.31392 -0.658696,-2.60793 -0.783381,-3.94173 -0.537352,-5.74821 -0.282892,-11.76348 0.583071,-17.44625 0.956246,-6.27526 3.143914,-12.29808 3.992708,-18.59255 0.150458,-1.3177 0.349276,-2.63077 0.451374,-3.9531 0.366267,-4.74383 -0.113798,-4.45809 0.758507,-9.6147 1.192329,-7.04843 3.662804,-13.75628 6.046811,-20.46389 1.732995,-5.95636 2.002311,-6.55905 3.363841,-12.4485 0.419428,-1.81429 0.800362,-3.63752 1.163609,-5.4639 0.311147,-1.56441 0.699153,-3.12038 0.859358,-4.70738 0.25385,-2.51461 -0.184808,-3.52291 -0.742209,-5.91549 0.01111,-1.87919 -0.116366,-3.76433 0.03332,-5.63759 0.394576,-4.93799 1.539986,-10.41387 2.657031,-15.21048 0.994822,-4.27181 2.631305,-8.9887 2.854899,-13.458756 0.086,-1.71928 -0.269793,-3.43226 -0.404688,-5.14839 -0.275463,-2.34922 -0.619112,-4.69145 -0.826389,-7.04766 C 66.742175,78.277874 66.319715,70.261924 66.797442,60.770581 67.06466,55.4616 67.793738,50.185707 68.355306,44.899753 69.263136,36.35449 113.10991,29.32684 114.45102,22.131613 Z"
       sodipodi:nodetypes="csscssscssscssscssscsccccscsssccsscsscssscssscssscc" />
    <path
       style="fill:#b4b4b4;fill-opacity:0.0704225;stroke-width:0.264583;filter:url(#filter1782)"
       id="path6617"
       d="m 95.141731,18.128906 c 1.048383,4.35297 2.394964,8.644765 3.14515,13.058909 3.147339,18.519122 3.425619,37.366332 2.431319,56.078812 -0.39208,7.37892 -1.300884,14.704433 -2.128678,22.039903 -0.170529,2.23842 -0.423905,4.47207 -0.511588,6.71526 -0.16493,4.21935 0.100714,9.72812 0.245491,13.88613 0.101494,2.91494 0.217535,5.82937 0.310949,8.74458 0.400794,12.5078 0.296143,8.36311 0.332142,21.00252 0.07838,3.37521 0.05394,6.75438 0.235135,10.12564 0.07469,1.38971 1.203649,12.95992 1.373239,15.14682 0.13559,1.74835 0.21024,3.5009 0.31536,5.25135 0.14088,2.04406 0.25791,4.0899 0.42263,6.13218 0.18529,2.29748 0.41822,4.59087 0.62734,6.88631 1.20178,6.98662 3.03536,13.86593 5.85643,20.38145 1.8939,4.37411 2.8,5.30981 5.03843,9.62773 0.88499,1.70715 1.67919,3.45985 2.51878,5.18981 1.13373,4.79168 3.57283,9.0846 6.08533,13.26441 0.63823,1.06177 1.3378,2.08814 1.92711,3.17783 0.44457,0.82203 0.77968,1.69873 1.16952,2.54812 l 0.49036,1.4841 c 0.0236,0.19227 0.0252,0.38854 0.0707,0.57682 4.52657,18.71874 12.07186,3.08726 51.78464,2.26343 0.67331,-0.014 1.30733,-0.52856 1.71905,-1.06151 0.66132,-0.85606 27.17319,61.5557 27.63076,60.57547 l -75.95842,-66.97299 v 0 c -16.45693,1.52495 -44.516106,-10.27398 45.27393,0.37087 0.72651,0.0369 0.0181,1.48121 -0.20908,2.17228 -0.22119,0.67273 -2.56084,-4.26024 -1.36832,-1.6252 -0.88624,-1.77253 -2.29455,-4.66037 -3.27625,-6.29603 -0.57368,-0.95581 -1.28481,-1.82345 -1.87551,-2.76884 -1.95497,-3.12885 -3.40838,-6.50676 -4.95913,-9.84411 -1.49544,-3.27446 -3.26558,-7.32541 -5.01967,-10.48978 -0.7959,-1.43581 -1.79936,-2.75023 -2.5891,-4.18944 -0.93757,-1.70857 -1.86783,-3.4319 -2.58699,-5.24328 -2.15655,-5.43176 -2.35364,-7.80361 -3.48803,-13.52153 -0.14919,-2.23869 -0.35028,-4.47453 -0.44757,-6.71607 -0.0927,-2.13477 0.0358,-4.27823 -0.12211,-6.40915 -0.13437,-1.8127 -0.46873,-3.60549 -0.75331,-5.40074 -1.2972,-8.18323 -3.3738,-16.25528 -2.89641,-24.63228 0.0156,-3.54689 -8e-4,-7.09406 0.0469,-10.64067 0.17664,-13.17513 0.8205,-26.36368 0.11388,-39.53554 -0.3884,-10.095223 -0.45938,-10.824883 -0.66497,-22.181873 -0.10617,-5.86502 -0.13494,-11.73126 -0.23845,-17.59632 -0.30753,-17.423687 -0.92507,-34.845235 -0.83831,-52.274024 l -49.232659,0.698643 z"
       sodipodi:nodetypes="csscssscsscscsscsscccssccscscsscssscssscccssccc" />
    <path
       style="fill:#b4b4b4;fill-opacity:0.0704225;stroke-width:0.264583;filter:url(#filter1782)"
       id="path6619"
       d="m 125.21034,48.219716 c 0.41129,2.19606 0.87351,4.383188 1.23386,6.588177 4.80098,29.377578 -2.94545,-15.222402 3.27987,20.855438 0.91426,5.29844 2.02171,10.56467 2.81918,15.88195 2.3592,15.730499 2.46641,20.261479 3.74412,35.954449 2.13382,32.60897 -0.0358,-1.1239 1.54941,24.94254 0.14405,2.36866 0.35676,4.73332 0.46607,7.10384 0.0768,1.66495 0.0489,3.33315 0.092,4.99931 0.3175,12.26391 0.20256,1.5571 0.23983,16.04311 -0.0566,14.43943 -0.47553,28.87157 -1.03589,43.29888 -0.11296,3.59965 -0.43513,7.18965 -0.21615,10.79291 0.10998,1.80962 0.35474,3.61076 0.4223,5.42246 0.065,1.74419 -0.0166,3.49078 -0.0249,5.23616 -0.0787,1.25629 -0.13356,2.51431 -0.23601,3.76888 -0.0605,0.74062 -0.2202,1.47251 -0.25262,2.21488 -0.06,1.37287 0.14751,2.19287 0.2728,3.53566 0.0571,0.61179 0.0873,1.22578 0.13095,1.83866 0.0902,0.87096 0.18044,1.74192 0.27066,2.61287 2.14424,12.10929 -1.51586,-8.31485 2.1628,10.85758 0.44974,2.34397 0.79621,4.70667 1.21748,7.0559 0.31319,1.74649 0.63739,3.49115 0.98582,5.23092 0.80455,4.01725 0.57715,1.64746 0.74958,4.65947 55.24898,-1.63086 51.68838,12.81234 49.58861,-8.21438 l -49.61311,0.3212 v 0 c 0.62063,20.57662 -5.09166,6.06362 50.11549,3.17704 -0.98782,1.67201 -0.74857,2.03811 -2.08893,-1.16195 -1.52059,-3.63037 -18.68694,68.44291 -19.13207,64.58719 -0.26919,-2.33172 16.09203,-80.97923 15.94201,-83.32162 -0.0756,-1.18012 -0.19744,-2.3568 -0.29616,-3.5352 -0.0516,-1.54004 -0.0485,-3.08205 -0.12783,-4.6209 -0.14869,-2.88446 -0.0672,-0.62005 -0.43362,-3.02604 -0.30556,-2.00649 -0.36785,-3.94586 -0.49991,-5.98469 -0.0115,-1.74437 -0.0975,-3.48982 -0.0346,-5.23311 0.0653,-1.8075 0.30673,-3.60464 0.419,-5.40983 0.22473,-3.61321 -0.007,-7.22479 -0.11912,-10.83666 -0.26217,-5.06848 -0.65829,-10.13316 -0.88289,-15.20296 -0.41192,-9.29813 -0.38709,-18.61015 0.17966,-27.90277 0.0186,-0.26601 1.10318,-15.25774 1.07149,-16.59096 -0.0912,-3.83673 -1.60705,-8.67291 -2.32496,-12.26984 -1.99279,-9.98436 -2.38757,-14.05173 -3.90623,-24.77923 -3.35305,-35.672579 -0.0305,0.44145 -3.17524,-36.166509 -0.45479,-5.29423 -0.95781,-10.58421 -1.43888,-15.876116 -0.68189,-7.500866 -1.37508,-13.264052 -1.51046,-20.660693 -0.0377,-2.062432 0.1129,-4.12401 0.16934,-6.186016 h -49.77285 z"
       sodipodi:nodetypes="ccsscsscccsscsssccssscccscssscssccscscsscsscccc" />
    <path
       style="display:none;fill:#b4b4b4;fill-opacity:0.0704225;stroke-width:0.264583;filter:url(#filter1782)"
       id="path6621"
       d="m -9.0913708,60.810695 c -1.0499122,3.805018 -2.0256322,7.63129 -3.1497372,11.415051 -2.22225,7.480146 -4.911659,11.849811 -3.887632,19.742353 0.837322,6.45354 4.021433,11.437401 8.6275137,15.865461 2.2728105,2.18497 5.0888526,3.72326 7.63327891,5.58488 9.27525739,5.35099 18.80616039,9.16078 29.26660239,11.48975 3.233209,0.71986 6.489169,1.53407 9.799601,1.64753 18.71083,0.64127 19.438778,0.33399 31.963362,-1.18596 5.424151,4.44174 5.752058,5.5798 12.259466,7.76402 1.915946,0.64309 3.934928,0.93985 5.929768,1.26393 1.585425,0.25758 6.399201,0.40144 4.794834,0.4784 -15.370402,0.73731 -27.142413,-0.46625 -15.099331,0.61435 3.780276,1.18944 6.392463,2.16377 10.436323,2.71287 1.988391,0.26999 4.003786,0.35781 6.010338,0.33942 1.852991,-0.017 3.695782,-0.27865 5.541344,-0.4453 1.30336,-0.11769 9.09157,-0.91582 10.6792,-1.07782 0.7628,-0.022 8.85672,-0.31845 9.81986,-0.10705 1.27521,0.2799 8.4424,3.89571 9.51687,4.29041 3.14013,1.15349 4.92447,1.1306 8.16245,1.44702 0.97042,-0.19993 2.16287,0.0495 2.91125,-0.59979 2.08067,-1.80524 -2.30262,-5.20265 -2.5602,-5.44873 -0.94339,-0.90125 -1.85273,-1.96893 -3.07754,-2.41846 -1.00415,-0.36855 -2.18152,-0.19232 -3.207,0.11189 -3.1982,0.94874 -6.2231,2.40571 -9.33465,3.60857 -2.77015,2.48126 -5.96332,4.5591 -8.31044,7.44379 -2.41772,2.97145 -4.12063,6.47713 -5.81265,9.91398 -1.78755,3.63089 -3.86999,7.25538 -4.59988,11.23607 -1.25713,6.85613 0.60848,13.19022 5.05211,18.38693 1.55651,1.82031 3.89335,2.7905 5.84002,4.18575 2.10784,-0.0978 4.45019,0.6778 6.32351,-0.29338 2.92791,-1.51792 8.23439,-9.13034 8.93726,-12.43013 0.92742,-4.35405 -3.01179,-4.40651 -5.65717,-3.62564 -2.35239,0.69438 -4.40372,2.1612 -6.60558,3.2418 -2.80443,1.86936 -5.76587,3.52227 -8.41328,5.60807 -3.34906,2.63861 -6.4339,5.60003 -9.53138,8.5299 -8.549889,8.08726 -11.23078,10.55718 -17.646357,19.97248 -4.310274,6.32562 -5.460362,9.40903 -8.619937,16.12528 -0.955953,4.41638 -3.317126,8.30989 -4.745445,12.54714 -1.254519,3.72167 -1.802103,5.33573 -0.474691,9.07837 0.428762,1.20889 0.962829,2.5016 1.955199,3.31429 0.844489,0.69158 2.104281,0.5812 3.156421,0.8718 7.988472,-5.63163 2.967323,-1.97952 13.242134,-9.92709 1.486926,-1.15014 2.614914,-3.13837 4.470807,-3.43741 5.347885,-0.86171 10.849449,0.51486 16.250299,0.0986 1.08525,-0.0836 -1.98734,-0.99601 -3.06934,-1.1145 -6.840847,-0.74914 -13.728234,-0.98446 -20.592353,-1.4767 -5.563786,-0.16917 -6.380065,-0.4822 -11.977156,0.54818 -1.977625,0.36406 -3.964903,0.77494 -5.848429,1.47913 -1.68224,0.62893 -3.207999,1.61808 -4.776372,2.49311 -1.249106,0.6969 -2.434675,1.50272 -3.671959,2.2204 -1.371942,0.79579 -2.769698,1.54622 -4.154546,2.31933 -3.532672,2.35463 -3.62934,2.18594 -6.760953,5.27231 -1.09614,1.08031 -2.185128,2.17878 -3.1339,3.39056 -0.967324,1.23548 -1.712002,2.63039 -2.595528,3.92712 -6.008084,8.81791 -2.860588,3.40308 -7.571354,12.47628 -0.707305,1.9514 -1.565116,3.85466 -2.121916,5.85422 -0.393755,1.41404 -0.6977,2.87687 -0.718052,4.34456 -0.007,0.50501 0.367615,1.80007 0.63876,1.37396 3.151462,-4.95258 5.049313,-15.03053 11.615541,-17.55268 9.460921,-3.63403 19.911441,-3.79412 29.867164,-5.69118 2.009899,-1.35306 4.381008,-2.28371 6.029703,-4.05917 2.849999,-3.06914 5.200716,-9.53339 6.39364,-13.45575 1.524897,-5.01388 2.551576,-9.85782 2.62368,-15.1289 0.03576,-2.61414 -0.386141,-5.21449 -0.579212,-7.82174 -0.730041,-2.96812 -1.180418,-6.01937 -2.190123,-8.90436 -1.167231,-3.33509 -5.503312,-11.36777 -7.464804,-14.44008 -1.398053,-2.18979 -3.185908,-4.11897 -4.531418,-6.34143 -7.769333,-12.83309 2.091397,0.10048 -7.650141,-11.84063 -3.723156,-3.10472 -8.971415,-8.68096 -14.636136,-6.58833 -1.270624,0.46939 -2.285534,1.50872 -3.190846,2.51631 -0.378526,0.42128 -1.088374,1.64384 -0.52266,1.6167 1.285835,-0.0617 2.292871,-1.17109 3.439308,-1.75663 1.703252,-1.34767 3.527864,-2.55474 5.109757,-4.04299 1.837878,-1.72908 3.454403,-3.68064 5.117285,-5.57862 1.982547,-2.26283 5.851996,-7.03096 7.651248,-9.57969 2.568114,-3.63786 0.79117,-2.56596 2.596295,-3.52122 0.468172,2.40992 0.936342,4.81984 1.404514,7.22977 0.412618,1.31626 0.967563,2.59611 1.237851,3.94879 0.09562,0.47854 0.32581,1.39159 -0.157994,1.45545 -8.775356,1.15832 -17.623144,2.12223 -26.474396,2.05994 -7.610205,-2.80161 -4.011295,-2.32377 -10.662359,-2.22225 -0.841266,0.82858 -2.138814,1.36948 -2.523802,2.48575 -0.573357,1.66245 -0.38228,3.53 -0.152238,5.27344 0.861729,6.53089 2.32756,7.23071 5.354105,13.15079 5.330542,10.4268 0.275918,2.05938 6.401882,11.57835 0.874869,1.21592 1.749738,2.43183 2.624609,3.64775 0.801036,0.85961 1.689005,1.64574 2.403112,2.57882 0.797783,1.04241 2.554282,4.44608 2.865787,5.58742 0.649708,2.38048 0.209314,3.26509 -0.257897,5.51584 -0.615217,0.28599 -1.169935,0.79726 -1.845654,0.85797 -1.216975,0.10935 -4.468053,-0.88313 -5.744985,-0.81144 -0.807686,0.0454 -1.616954,0.29455 -2.331408,0.67397 -0.277858,0.14757 -0.508445,1.12878 -0.47425,0.81603 0.09642,-0.88194 0.444503,-1.71781 0.666753,-2.57672 -1.111041,-13.04888 -1.56962,-0.69259 22.958242,-8.24862 1.708481,-0.52631 -3.238995,-1.67734 -5.011505,-1.90998 -2.889057,-0.37919 -5.857605,-0.31595 -8.74087,0.10501 -3.722521,0.54349 -7.242945,2.07857 -10.941108,2.76859 -11.739459,2.19037 -23.561649,3.91141 -35.3424734,5.86711 -12.7274331,11.66634 -16.090677,13.22178 -25.5756066,28.79709 -2.784081,4.57177 -4.64215,9.65387 -6.668068,14.60845 -1.059808,2.59186 -5.588444,15.63905 -5.770202,19.30202 -0.125682,2.53286 0.887532,4.9937 1.331299,7.49052 0.993941,2.02506 1.681448,4.2319 2.981826,6.07523 2.962117,4.19888 5.701409,4.95009 9.435293,8.23854 1.892979,1.66714 3.643509,3.49364 5.35795,5.3439 17.1189264,18.47511 6.9786319,9.47118 20.3137598,20.51473 3.1329552,8.48606 -0.6345383,-3.28078 0.4693885,7.59658 0.4644874,4.57674 2.0285607,4.56396 4.2320457,8.0268 4.011229,6.3038 -0.732077,1.92857 6.533123,7.01857 1.840434,0.69255 3.590692,1.70405 5.521301,2.07762 2.349545,0.45463 4.804257,0.0132 7.169422,0.37804 10.92576,1.68494 4.322578,1.87047 15.263728,5.0316 2.790185,0.80614 5.876406,0.48615 8.569807,1.57269 3.189419,1.28664 5.850794,3.61659 8.776192,5.42485 2.245828,1.18809 15.459738,8.44664 18.173384,8.82224 11.30658,1.56491 22.786939,1.39079 34.187959,1.94247 3.12641,0.15126 6.25947,0.23741 9.38872,0.16613 27.84177,-0.63402 -10.82252,-1.07558 25.0556,-0.29874 4.93485,-0.6895 9.96901,-0.86609 14.80455,-2.06846 10.41936,-2.5908 18.95507,-6.93825 27.93472,-12.65748 7.73576,-4.92702 16.82898,-12.15411 23.40386,-18.55409 3.75524,-3.65535 7.12399,-7.68781 10.68599,-11.53171 4.98004,-3.7824 10.47308,-6.97082 14.94013,-11.34721 8.73739,-8.56012 14.18132,-18.02294 17.03373,-29.91035 2.3651,-9.8566 1.9214,-23.21004 0.76731,-33.19137 -0.60198,-5.20626 -1.82178,-10.32237 -2.73266,-15.48355 -2.68127,-12.95342 -7.19658,-25.37611 -12.79568,-37.32981 -1.53924,-3.28616 -3.37427,-6.42957 -4.88226,-9.73018 -2.87239,-6.28693 -5.25906,-13.14942 -7.6441,-19.62324 -1.23429,-5.34341 -5.39497,-24.06565 -7.13141,-28.22441 -1.97566,-4.73168 -4.56012,-9.28981 -7.82427,-13.24422 -3.00302,-3.63804 -7.15832,-6.14593 -10.72745,-9.23053 -12.21946,-10.56063 -5.49586,-6.12158 -19.15266,-13.1166 -8.22713,-1.92283 -9.92146,-2.774417 -18.01049,-3.075854 -2.05322,-0.07652 -4.10956,0.106418 -6.15844,0.260332 -1.42697,0.107193 -2.85271,0.268957 -4.26108,0.522392 -3.47303,0.91767 -1.91016,0.6231 -4.66071,1.02075 -0.39333,-0.12929 -0.98793,-0.0211 -1.17997,-0.38787 -0.37641,-0.71895 -0.16451,-1.615433 -0.28874,-2.417396 -0.16633,-1.0738 -0.30569,-2.1566 -0.58254,-3.207347 -0.28131,-1.067705 -0.74753,-2.078334 -1.08692,-3.129018 -1.93267,-5.983021 -0.17475,-1.373257 -2.45182,-6.963873 -0.59438,-0.380656 -1.09611,-1.303812 -1.78313,-1.141969 -0.72241,0.170183 -0.8491,1.218703 -1.23466,1.852883 -2.43592,4.006688 -0.72822,1.342514 -2.75325,5.468601 -0.97447,1.985545 -0.86272,1.652823 -0.70139,1.011492 0.44054,-0.914247 0.88109,-1.828493 1.32164,-2.74274 0.0447,-0.294452 0.0379,-0.601459 0.13404,-0.883354 0.088,-0.258127 0.31306,-0.453353 0.40866,-0.708758 0.0355,-0.09487 -0.0195,-0.403145 -0.0302,-0.302405 -0.40944,3.86946 0.2821,0.985644 -1.36551,5.665377 0.58916,0.123693 -0.0595,3.570658 1.26312,3.860909 0.64931,0.142491 3.31358,-1.694596 0.93047,-1.609527 -7.12454,0.25432 -14.24178,0.682977 -21.36267,1.024464 -12.14531,-8.33964 -12.59639,-6.162836 -18.60808,-19.396895 -1.74255,-3.836019 -1.58133,-7.006119 -1.58376,-10.911096 -7.9e-4,-1.440432 -0.1971,-1.627669 0.19423,-1.066866 -0.0663,0.580511 -0.18898,1.157335 -0.19892,1.741537 -0.0125,0.732581 0.1901,1.463726 0.13192,2.1941 -0.43274,5.433004 -1.83587,6.022978 -0.83051,12.695155 1.53927,10.215462 2.34237,10.484988 6.50168,17.634596 0.23049,0.60589 0.41294,1.2323 0.69148,1.81766 0.29211,0.61388 0.4438,-0.90209 0.37668,-1.262011 -0.0987,-0.529329 -0.30314,-1.034119 -0.42127,-1.559452 -0.20476,-0.910524 -0.36458,-1.830573 -0.54687,-2.745862 -3.55061,3.2355 -0.0641,-7.166919 -2.28532,-6.537923 -2.8674,0.811956 -5.33501,2.747939 -7.65548,4.617882 -4.665539,3.759724 -7.409043,7.833496 -8.856865,13.662536 -0.646869,2.60435 -0.46084,5.34713 -0.691263,8.0207 0.691253,2.43289 1.064845,4.97944 2.073754,7.29869 1.641506,3.77344 4.795625,7.56717 7.508104,10.64808 2.54169,2.88693 4.67838,4.27267 6.16855,8.03342 0.55576,1.40259 0.4795,2.97903 0.71925,4.46855 0.68673,1.07534 1.2641,2.22894 2.0602,3.22603 1.51172,1.89341 3.29439,3.46323 5.61232,4.28971 0.68278,0.24345 1.71749,0.75463 2.16671,0.18572 0.69049,-0.87448 0.29973,-2.21372 0.31432,-3.32785 0.0217,-1.6614 -0.13703,-3.32025 -0.20554,-4.98038 -0.36265,-0.25042 -0.67678,-0.90984 -1.08797,-0.75125 -0.84118,0.32444 -1.27696,1.27309 -1.91544,1.90963 -0.88911,0.56054 -1.67471,1.33605 -2.66733,1.68162 -1.27718,0.44465 -2.68823,0.33789 -4.00604,0.6417 -4.47474,1.03163 -3.64301,0.92343 -7.23446,3.33851 -1.694809,2.922 -2.917158,3.58186 -1.617315,7.19592 0.409945,1.13981 0.959659,2.68019 2.144075,2.93393 1.39108,0.29802 2.77854,-0.81453 3.94462,-1.6295 2.94248,-2.05649 4.83477,-5.84716 8.26553,-6.90412 8.65636,-2.66685 17.92561,-2.61743 26.88842,-3.92614 11.48934,6.49741 5.27141,2.04257 14.74912,11.14186 1.00845,0.96818 1.89216,2.13399 3.1197,2.80293 0.44634,0.24323 1.23095,0.14596 1.49773,-0.28671 0.68341,-1.10833 0.27322,-4.04284 0.17862,-5.23652 -0.56826,-2.884 -2.3353,-5.30499 -3.24081,-8.0533 -1.55798,-4.72861 -1.53842,-7.89451 -2.09348,-13.04854 -1.59436,-14.80422 -0.87633,-6.18418 -1.81859,-24.02467 -1.8721,-17.054115 -0.15465,-18.145937 -8.58074,-32.86271 -2.45673,-4.290862 -4.86028,-8.937159 -8.77183,-11.961524 -6.22136,-4.810279 -18.40152,-6.400951 -25.95427,-5.452533 -3.98666,0.500615 -7.69059,2.330508 -11.535881,3.495762 -2.834677,2.262383 -6.803443,3.583747 -8.504036,6.787144 -11.712586,22.062961 13.199597,15.78287 -15.788003,42.732361 -5.9861,5.56522 -15.811327,4.15618 -23.763975,6.04311 -0.152024,0.0361 -0.486119,-0.27335 -0.338423,-0.32433 1.089118,-0.37588 2.253017,-0.4835 3.379526,-0.72525 7.516405,-1.03436 16.242503,1.11493 22.549214,-3.10309 7.642858,-5.11164 14.016149,-13.56681 15.84764,-22.577236 C 93.583719,83.326839 85.984804,69.495577 78.408376,60.791219 76.250352,58.311922 74.367413,54.959464 71.207502,54.054517 61.883168,51.384183 51.95776,51.658035 42.332891,50.459793 38.011375,51.357021 33.468751,51.518335 29.368345,53.151481 18.286442,57.565279 9.8971578,65.063536 2.6663531,74.437072 -4.3645806,83.551508 -9.9149994,95.241998 -12.973865,106.3411 c -1.368028,4.96389 -1.754207,10.14739 -2.63131,15.22109 -1.436296,12.60748 -2.854816,14.96632 -0.06768,27.10786 1.625233,7.07998 5.254727,13.9716 8.8334953,20.20117 1.6753308,2.91625 3.4043834,5.81236 5.3641664,8.54559 1.6311441,2.27488 3.58942,4.29639 5.38413,6.44459 4.989848,5.38184 5.1844956,5.20329 9.3346233,11.20471 1.182663,1.71022 2.328117,3.45224 3.336179,5.27086 0.944697,1.7043 1.895192,3.43026 2.511531,5.27884 1.239578,3.71785 1.074166,7.89627 1.217857,11.71411 -0.558674,3.05841 -1.485682,6.07205 -1.676023,9.17524 -0.391497,6.3827 0.784513,15.24065 2.903625,21.23895 1.254418,3.55072 2.998229,6.93569 4.958461,10.15107 5.219089,8.5609 7.872063,10.25643 14.938898,17.05048 2.070622,1.78914 12.500534,10.92226 15.042835,12.66616 2.313901,1.58723 4.853533,2.82403 7.359574,4.08625 4.108127,2.06912 8.414517,3.76198 12.782973,5.19036 1.693214,0.55364 3.423946,0.98517 5.135919,1.47777 4.793179,0.6336 5.579954,0.43395 10.301425,2.43983 3.203962,1.3612 5.964296,4.04969 9.413086,4.523 8.6012,1.18041 17.40595,1.2215 26.04321,0.34298 2.70273,-0.2749 4.76924,-2.61474 7.24692,-3.72896 1.36139,-0.61224 2.82748,-0.95819 4.24122,-1.43729 2.69995,-1.08887 5.74797,-0.96719 8.45844,-1.98795 1.91884,-0.72263 3.77723,-1.65529 5.47277,-2.80824 4.40249,-2.99368 9.9925,-9.01424 13.46199,-12.51177 2.89027,-2.91359 5.76478,-5.84277 8.64717,-8.76416 13.07532,-8.21653 50.73029,-31.22117 60.09558,-40.32647 17.33989,-16.8585 26.38633,-36.9349 28.98048,-60.69295 1.13669,-10.41024 1.16711,-21.26017 -1.52966,-31.3791 -2.60632,-9.77955 -9.34121,-17.9575 -14.01181,-26.93624 C 235.5389,95.295166 232.42827,87.493344 214.45385,71.989602 203.53456,62.57123 185.71363,52.436664 172.63997,46.312322 c -10.11519,-4.738449 -19.69472,-13.7966 -30.84309,-13.100904 -15.4819,0.966123 -28.68932,11.807385 -43.033979,17.711078 -5.932078,9.003858 -10.188699,11.957293 -10.17705,22.554419 0.0067,6.122826 2.945109,9.77868 5.795259,14.749759 0.504338,5.008838 71.34,-2.12357 70.83566,-7.132407 v 0 c 1.04133,0.160139 2.08265,0.320281 3.12398,0.48042 0.64378,-0.124188 1.27594,-0.390573 1.93134,-0.372568 0.30354,0.0083 -0.54459,0.268793 -0.81688,0.403188 -1.93501,1.190225 -3.87002,2.380451 -5.80503,3.570676 -13.07038,3.95119 -25.55877,12.097509 -39.21114,11.853572 C 114.73034,96.85608 107.4672,87.431387 98.379771,84.00974 93.391925,82.13169 87.948306,81.034767 82.6245,81.285317 c -11.68927,0.550124 -22.808768,6.98614 -31.234326,14.545852 -5.409338,4.853451 -9.627299,10.889571 -14.440951,16.334351 -4.941318,7.42662 -11.663567,13.93821 -14.823958,22.27987 -3.176415,8.38396 -3.899787,17.67593 -3.710007,26.63942 0.423159,19.98631 6.860103,39.55455 20.785318,54.46377 17.137266,18.34825 29.285636,21.19356 50.227711,29.67833 11.130663,7.04508 -1.367438,-0.12092 6.782895,2.95524 0.944364,0.35643 1.165704,2.08393 1.291085,2.73746 0.170797,0.89024 0.408718,2.90524 0.538882,3.96069 5.430731,1.32254 -7.081133,-1.38695 6.510711,-2.25895 7.93498,-0.50907 15.97825,-0.4184 23.84178,0.7597 3.71708,0.55688 6.95141,5.74938 9.81141,3.68008 0.81375,-0.58877 0.84722,-1.82141 1.27083,-2.73213 0.28585,-2.37672 0.64821,-4.98376 0.71093,-7.36783 0.0422,-1.60521 0.009,-3.21321 -0.0759,-4.81671 -0.0974,-1.83162 -0.14917,-3.67675 -0.47183,-5.48235 -0.33163,-1.85584 -1.03973,-3.62544 -1.48316,-5.45778 -0.49757,-2.05603 -0.89257,-4.13552 -1.33885,-6.20329 -1.32852,-6.24905 -1.33626,-8.22192 -4.32204,-14.08262 -1.31961,-2.59021 -2.78783,-5.13079 -4.56848,-7.42857 -3.60446,-4.65128 -9.12751,-9.40552 -13.90029,-12.78657 -2.6255,-1.85992 -5.4571,-3.41033 -8.18565,-5.1155 -3.80038,-3.75374 -5.67814,-5.09712 -8.380921,-9.61507 -1.436465,-2.40118 -2.314636,-5.31822 -2.480855,-8.10898 -0.176387,-2.96152 0.755221,-7.58261 1.179375,-10.27521 0.945407,-7.16063 0.9119,-6.03013 1.399537,-13.11777 0.34679,-5.04049 0.825167,-9.73798 -0.185933,-14.77703 -0.455517,-2.27017 -1.098206,-4.5689 -2.274244,-6.56341 -1.045065,-1.7724 -2.827042,-2.99032 -4.240562,-4.48547 -1.063101,-0.62726 -1.976305,-1.65314 -3.189301,-1.88176 -3.71839,-0.70083 -6.472407,2.01789 -9.222007,3.85696 -3.271364,2.18805 -6.684677,5.16562 -10.648185,6.23323 -1.082397,0.29155 -2.24195,0.002 -3.362923,0.004 -6.668553,-1.30487 -13.877324,-0.97935 -20.005659,-3.91462 -1.720667,-0.82414 0.212614,-3.84286 -0.114805,-5.72241 -0.44985,-2.58237 -1.666428,-4.98361 -2.197354,-7.55053 C 40.497392,101.83989 35.91362,93.815066 37.869878,86.063036 44.247003,60.792499 55.044141,64.358622 73.952054,61.813296 73.308699,59.503412 73.522921,58.970475 68.767636,59.658591 59.269915,61.032963 48.070296,59.476383 40.568538,65.461303 23.106646,79.39244 25.854348,95.094292 22.504152,112.75819 c -0.865038,4.5609 -2.364478,8.9783 -3.546718,13.46745 -1.006926,12.20306 -2.705155,16.05858 1.822788,27.88713 1.629784,4.25755 3.445043,8.7925 6.824797,11.85196 3.718025,3.36566 8.764754,5.01935 13.532233,6.57581 13.048432,4.25998 15.37516,2.11419 28.600855,-0.27224 3.273584,-0.85535 6.547167,-1.7107 9.820751,-2.56604 1.700911,-0.4082 3.40932,-0.78634 5.102736,-1.2246 0.621291,-0.16079 3.323862,-1.78393 4.142234,-0.16515 0.573291,1.13399 -0.709589,2.73064 0.268319,3.80257 0.43973,1.31399 0.747361,2.67984 1.319186,3.94195 0.542454,1.19728 1.336641,2.2637 2.005166,3.39543 1.02157,1.72938 1.979684,3.49788 3.065121,5.18791 3.727638,5.80396 8.33952,12.54634 13.68666,16.84117 3.29132,2.64358 7.33527,4.1808 11.0029,6.2712 10.06875,-1.19988 20.46771,-0.77468 30.20624,-3.59965 4.60545,-1.33596 7.7682,-5.62583 11.58843,-8.52423 2.37333,-1.80064 4.57539,-3.82406 6.98895,-5.57039 1.67614,-1.21277 3.67004,-1.9705 5.26099,-3.29304 4.76718,-3.96292 4.06521,-4.68557 5.92435,-10.50811 0.0954,-2.41237 0.5068,-4.83295 0.28619,-7.23711 -0.40454,-4.40873 -2.07373,-9.05561 -4.1745,-12.93346 -0.5311,-0.98037 -1.34954,-1.77525 -2.02432,-2.66288 -0.50292,-0.33183 -1.19001,-0.48416 -1.50876,-0.99547 -0.48761,-0.78221 -0.51187,-1.771 -0.76781,-2.65649 -0.0274,-2.07573 -0.0923,-4.1513 -0.0823,-6.22719 0.007,-1.51687 -0.28209,-3.08999 0.13398,-4.54871 0.3268,-1.14577 2.94914,-2.19687 3.64625,-2.80055 0.54418,-0.47123 1.01979,-1.04672 1.34728,-1.68777 0.35011,-0.68533 0.4314,-1.47747 0.64709,-2.2162 -1.20697,-2.90931 -0.94385,-0.7459 0.98561,-3.34829 1.04827,-1.41385 4.2865,-7.25791 4.98293,-8.57619 0.86063,-1.62908 1.92632,-3.18269 2.47876,-4.94037 0.5742,-1.82693 0.5729,-3.78698 0.85936,-5.68048 -0.55638,-1.94681 -0.80169,-4.01091 -1.66915,-5.84043 -1.98628,-4.189213 -5.65391,-8.195028 -9.67877,-10.477652 -2.378,-1.348639 -5.69535,-0.977776 -7.69217,-2.844972 -2.91433,-2.725147 2.31522,-9.646412 -2.48725,-11.708593 -0.4232,-1.567402 -0.74392,-3.166142 -1.2696,-4.702212 -0.67391,-1.969151 -2.04206,-4.601001 -3.08559,-6.459812 -0.76499,-1.362663 -2.04681,-3.792413 -3.44972,-4.741373 -0.40847,-0.276299 -0.9779,-0.12836 -1.46685,-0.19254 2.08912,5.492385 2.81994,6.787742 3.59025,14.226844 0.23116,2.232469 -0.19983,4.484714 -0.34843,6.724195 -0.0583,0.879181 -0.43755,1.763818 -0.27225,2.629289 0.21389,1.119854 1.58571,-0.168424 1.64222,-0.207743 0.4399,-0.776441 0.99853,-1.496722 1.31968,-2.329323 0.50971,-1.321438 0.91706,-2.692702 1.15591,-4.088749 0.39463,-2.306609 0.83422,-4.643319 0.73807,-6.981465 -0.3426,-8.331793 -2.791,-16.312417 -8.63928,-22.743536 -3.72489,-4.096099 -9.0543,-6.374238 -13.58145,-9.561356 -7.94147,0.302181 -15.88961,0.462301 -23.8244,0.906542 -1.37809,0.07715 -2.73286,0.39633 -4.08842,0.656204 -1.17386,0.225044 -4.58604,0.894236 -5.76835,1.760614 -3.16011,2.315689 -3.9888,4.302199 -6.12428,7.582738 -1.12602,1.664994 -2.390633,3.244242 -3.378074,4.994987 -4.576112,8.113495 0.238038,1.617199 -2.576449,4.890807 -0.09307,0.108249 -1.069229,1.599274 -1.418381,1.358567 -0.294881,-0.20329 0.138155,-0.702879 0.207232,-1.054317 -0.431144,0.484923 -0.905557,0.934587 -1.293434,1.454769 -2.42048,3.246106 -2.672686,4.084955 -4.615108,8.07893 -0.842688,1.732719 -1.72791,3.447968 -2.468132,5.226873 -0.698878,1.679551 -1.066429,3.491907 -1.844148,5.136435 -0.502499,1.062554 -1.312318,1.950366 -1.968476,2.925549 -0.468704,0.633145 -0.983864,1.234405 -1.406113,1.899433 -1.09964,1.731896 -2.214618,4.162607 -2.775079,6.057569 -1.718868,5.81162 -1.064093,11.950448 -2.393035,17.838018 -0.430165,7.29516 -0.855964,12.49343 -0.761992,19.91013 0.0888,7.00859 0.796984,17.76189 1.703859,24.58422 0.604967,4.55112 1.242443,9.1134 2.315175,13.57746 1.138061,4.73591 2.868801,9.30945 4.303199,13.96418 9.458516,16.09532 4.56946,10.15324 17.802086,23.23627 3.08702,3.05213 5.77835,6.62017 9.39992,9.0138 3.74117,2.47267 8.0181,4.16428 12.34138,5.35582 7.88222,2.17243 16.44513,0.98209 24.22459,3.84823 2.25581,0.80908 4.51884,1.59828 6.76742,2.42723 3.04442,1.12233 4.20767,1.32703 6.51522,2.93175 0.27194,0.18911 0.61872,0.3669 0.72356,0.68111 0.27711,0.83048 -3.91543,-4.33997 -2.49458,-0.82188 -1.15315,-0.10846 -2.30417,-0.40827 -3.45943,-0.32537 -2.75649,0.19779 -8.12344,1.66049 -10.31397,3.09545 -3.74901,2.4559 -6.32088,6.23751 -7.15292,10.66449 -0.40566,2.15838 0.11908,4.39072 0.17862,6.58607 -3.9976,2.38679 -4.92777,3.0863 -9.43295,5.09377 -13.80768,6.15259 2.44134,-1.5666 -11.75124,4.46737 -5.21985,2.21921 -5.53216,2.83832 -10.23511,6.18501 -5.31507,5.39634 -2.16014,3.73224 -9.996343,5.07791 -2.187432,0.37563 -8.703741,0.47752 -6.569239,1.08567 6.082874,1.73307 13.031032,-0.13883 18.821782,2.40524 3.2413,1.42399 -10.415818,4.73552 -7.72869,7.28504 -0.45615,1.04032 -0.55054,2.3327 -1.36845,3.12095 -0.434637,0.41888 0.27889,-1.27088 0.0091,-1.81086 -0.37697,-0.75452 -1.316505,-1.08675 -1.801561,-1.77676 -1.497888,-2.1308 -5.150953,-9.80279 -6.211128,-11.01111 -2.10752,-2.40208 -4.970526,-4.01752 -7.455789,-6.02626 -3.086446,-1.51788 -6.019392,-3.39914 -9.259342,-4.55363 -4.041153,-1.43999 -16.760251,-4.26506 -21.627483,-4.31063 -3.228327,-0.0302 -6.437403,0.60543 -9.611035,1.19794 -8.992907,1.67896 -7.752834,1.48888 -14.167847,4.75065 5.144111,8.52524 5.442132,9.59923 14.387967,19.27478 1.174679,1.27048 2.611882,2.52116 4.297609,2.9115 1.319524,0.30554 2.737628,-0.37571 3.937132,-1.00473 3.431749,-1.79967 3.666691,-3.32928 5.35082,-6.47903 0.19182,-1.2304 0.887235,-2.48555 0.575455,-3.69113 -0.450175,-1.74072 -2.96741,-4.73538 -5.283631,-2.84911 -1.964867,1.60009 -3.085439,4.02058 -4.646192,6.01684 -10.642041,13.61167 -5.398749,6.21548 -13.729062,18.73498 -7.990893,1.66481 -16.548817,1.60145 -23.972674,4.99444 -1.7450375,0.79753 2.308649,3.24244 4.010098,4.12919 2.709583,1.41213 5.776823,2.14021 8.804773,2.5495 4.39726,0.59439 8.872001,0.64415 13.304505,0.43902 42.587383,-1.97096 29.321958,1.57224 55.637014,-8.9784 3.65297,-1.77403 22.591281,-10.71898 26.596001,-13.56984 7.69218,-5.4759 13.71099,-13.00543 18.285,-21.17979 3.80252,-6.79559 7.38395,-17.7186 10.02389,-25.11366 3.61137,-10.67984 3.93358,-10.96125 6.72936,-21.94184 1.00885,-3.9623 2.15806,-7.90425 2.80034,-11.9422 1.17738,-7.40204 1.88281,-21.02863 1.33204,-28.40333 -0.36203,-4.84758 -1.47086,-9.61027 -2.20629,-14.4154 -1.20745,-4.31374 -2.05108,-8.74629 -3.62235,-12.94122 -1.73964,-4.64443 -9.09446,-19.05784 -12.11784,-23.3164 -5.66789,-7.98344 -12.72593,-14.47763 -20.42501,-20.44593 -4.45785,-3.455698 -9.2411,-6.469855 -13.86164,-9.704781 C 99.014927,89.531242 80.077624,78.788124 72.145947,78.093492 61.850796,77.191877 34.539885,76.435655 21.277703,84.432877 10.061152,91.196564 8.8896869,96.837065 2.5232084,108.00622 c -2.43359303,3.49123 -6.0147445,8.09573 -7.7860812,12.22996 -0.5136306,1.19879 -0.7407643,2.50456 -0.9984322,3.78304 -0.1844527,0.91522 -0.3992742,1.85133 -0.3246866,2.78196 0.084316,1.05201 1.5006296,1.73423 1.1508729,2.94958 -1.5805663,4.7021 -0.6210434,2.89714 -5.3455783,8.38826 -2.074373,2.41095 -4.213564,4.7696 -6.44644,7.03455 -2.272339,2.30497 -4.713055,4.43769 -7.060375,6.66625 -9.898112,9.39737 -5.499277,4.94087 -15.104329,15.62333 -2.099604,3.79391 -4.696396,7.35255 -6.298808,11.38175 -1.785009,4.48832 -2.636129,9.29593 -3.79008,13.98631 -1.306623,5.31094 -2.904042,10.58426 -3.589858,16.0104 -1.384589,10.95479 -0.986317,25.97274 1.521057,36.71524 1.435087,6.14844 4.196895,11.90955 6.295343,17.86432 3.304746,5.92678 6.007737,12.23172 9.914241,17.78035 7.528955,10.69382 17.457289,19.92278 28.5332837,26.84608 4.9429105,3.0897 10.2079636,5.76212 15.7171849,7.66659 9.1961584,3.17897 21.2142954,3.72489 30.8045204,4.60322 11.905667,-1.28783 24.229186,-0.48215 35.717003,-3.86349 8.316825,-2.44798 12.769056,-14.48163 16.472633,-20.78088 0.390279,-0.66382 0.861271,-1.33266 1.508863,-1.74927 0.743945,-0.47863 -0.347118,5.98728 -0.467159,2.61239 -0.414057,0.87077 -0.798484,1.75625 -1.242171,2.61231 -0.524304,1.01158 -1.453629,1.86735 -1.660361,2.98784 -0.0856,0.46394 0.528471,0.80592 0.908915,1.08492 0.342601,0.25125 0.774705,0.3683 1.190662,0.45482 1.635472,0.34007 1.946516,0.0375 3.643498,-0.37801 1.556345,-0.33467 2.105435,-0.53324 3.835217,-0.48702 0.516187,0.0138 1.013717,0.28083 1.529067,0.24839 0.98594,-0.0621 1.20454,-0.93406 1.26453,-1.70114 -5.133942,-0.5094 -10.318119,-0.64907 -15.401823,-1.52815 -0.532144,-0.092 0.805561,-0.89133 1.345488,-0.9025 6.742771,-0.13932 13.520745,1.16671 20.227475,0.45668 2.96565,-0.31396 5.63415,-2.03145 8.24586,-3.47113 8.53236,-4.70328 11.92537,-7.76425 19.11968,-13.42861 2.00304,-1.25925 4.02991,-2.48139 6.00913,-3.77777 3.7128,-2.43186 7.12718,-4.51046 9.79685,-8.1952 3.20741,-4.42699 3.86779,-9.90264 6.21051,-14.71296 0.31185,-0.95333 0.67854,-1.89044 0.93555,-2.85999 0.13784,-0.51997 0.68104,-1.27944 0.24541,-1.59503 -0.42091,-0.30491 -0.9406,0.46715 -1.3349,0.80577 -1.51752,1.30327 -4.41136,3.41394 -3.43134,6.11614 0.36915,1.01785 1.702,1.33878 2.553,2.00817 1.97974,0.22055 3.96027,0.88921 5.93922,0.66165 8.11168,-0.93275 14.64983,-4.70944 21.30883,-9.33543 5.22197,-3.62767 10.20644,-7.61449 14.9409,-11.85878 6.02497,-5.4012 21.24189,-21.64762 27.12533,-27.84455 7.25405,-9.89826 14.17179,-17.4489 17.65439,-29.56147 3.82519,-13.3041 1.91839,-19.82114 -2.85962,-32.47649 -1.92362,-5.09504 -4.14429,-10.12856 -7.02191,-14.7523 -2.98247,-4.79222 -6.96751,-8.88234 -10.45126,-13.32351 -4.08647,-3.83988 -8.45463,-7.40046 -12.25939,-11.51964 -2.4801,-2.68504 -4.31896,-5.89846 -6.52273,-8.81458 -2.30166,-3.04566 -4.52026,-6.161301 -6.99289,-9.069884 -2.42948,-2.857846 -5.1074,-5.495123 -7.69637,-8.209333 -6.17985,-6.478786 -4.17408,-4.55074 -10.06573,-9.480685 -3.28646,-1.961591 -5.22905,-3.410632 -8.95331,-4.485169 -2.26525,-0.653576 -5.97537,-0.482271 -8.15389,-1.613058 -3.04057,-1.578248 -4.87976,-4.986914 -7.97657,-6.480577 -5.98331,-4.40227 -11.85668,-8.940985 -18.74554,-11.895955 -2.57297,-1.103667 -5.23243,-2.03671 -7.95025,-2.708802 -5.92051,-1.464085 -12.26151,-1.657778 -18.29152,-2.105572 -17.953901,-1.740604 -13.916827,-1.629053 -42.077995,-1.121336 -7.467213,0.134625 -16.62463,2.012362 -22.021808,7.70677 -1.780354,1.878401 -2.789356,4.36024 -4.184036,6.540359 -4.963123,5.397175 0.07835,-0.375274 18.927921,0.824728 1.292932,0.08231 2.43899,0.881578 3.6864,1.231453 1.196266,0.335531 2.399739,0.693425 3.635478,0.822192 2.635486,0.274633 2.279298,-0.02763 3.811715,-1.703615 -0.211902,-1.002681 -0.146942,-2.107276 -0.635701,-3.008048 -1.474907,-2.718199 -4.679291,-4.476392 -7.486465,-5.270542 -4.821354,-1.363961 -10.20228,-1.645671 -14.430499,1.924743 -2.234909,1.887215 -3.076057,4.976292 -4.614082,7.464439 0,-3.794803 -53.6666135,-3.794803 -53.6666135,0 z" />
  </g>
</svg>
